<svg width="30" height="30" viewBox="0 0 30 30" fill="none" xmlns="http://www.w3.org/2000/svg">
<path d="M15.0004 6.64996H19.3334C21.3949 6.64996 22.8739 6.65155 23.9984 6.78766C25.1085 6.92207 25.7584 7.17713 26.2279 7.60016H26.2289C26.6877 8.01266 26.956 8.56825 27.1 9.5318C27.2484 10.5256 27.2504 11.8384 27.2504 13.6998V20.1998C27.2504 22.0615 27.2485 23.3748 27.1 24.3687C26.956 25.3321 26.6877 25.8869 26.2289 26.2994L26.2279 26.3004C25.7584 26.7232 25.1083 26.9785 23.9984 27.1129C22.8739 27.249 21.3949 27.2496 19.3334 27.2496H15.0004C12.9388 27.2496 11.4598 27.249 10.3353 27.1129C9.22495 26.9785 8.57446 26.7235 8.10486 26.3004V26.2994L7.9408 26.1373C7.58044 25.7416 7.35971 25.2114 7.23376 24.3687C7.08525 23.3748 7.08337 22.0615 7.08337 20.1998V13.6998C7.08337 11.8384 7.0853 10.5256 7.23376 9.5318C7.35973 8.68882 7.58028 8.15801 7.9408 7.76227L8.10486 7.60016C8.57445 7.17704 9.22499 6.92206 10.3353 6.78766C11.4598 6.65155 12.9388 6.64996 15.0004 6.64996Z" stroke="currentColor" stroke-width="1.5"/>
<mask id="path-2-inside-1_677_1697" fill="white">
<path d="M6.33333 24.1C5.18406 24.1 4.08186 23.6891 3.2692 22.9577C2.45655 22.2264 2 21.2344 2 20.2V12.4C2 7.49771 2 5.0459 3.69289 3.5236C5.38578 2.0013 8.10855 2 13.5556 2H19.3333C20.4826 2 21.5848 2.41089 22.3975 3.14229C23.2101 3.87368 23.6667 4.86566 23.6667 5.9"/>
</mask>
<path d="M2 20.2H0.5H2ZM6.33333 24.1V22.6C5.53386 22.6 4.79482 22.3128 4.27265 21.8428L3.2692 22.9577L2.26576 24.0727C3.3689 25.0655 4.83426 25.6 6.33333 25.6V24.1ZM3.2692 22.9577L4.27265 21.8428C3.7557 21.3775 3.5 20.7825 3.5 20.2L2 20.2H0.5C0.5 21.6862 1.15739 23.0752 2.26576 24.0727L3.2692 22.9577ZM2 20.2H3.5V12.4H2H0.5V20.2H2ZM2 12.4H3.5C3.5 9.90188 3.50392 8.19557 3.69514 6.916C3.87728 5.69719 4.20117 5.08381 4.69586 4.63897L3.69289 3.5236L2.68991 2.40824C1.49172 3.48569 0.969167 4.85937 0.728085 6.47261C0.496081 8.02509 0.5 9.99584 0.5 12.4H2ZM3.69289 3.5236L4.69586 4.63897C5.21385 4.17318 5.9633 3.85374 7.39685 3.68005C8.85878 3.50291 10.794 3.5 13.5556 3.5V2V0.5C10.8701 0.5 8.72044 0.497736 7.036 0.701828C5.32319 0.909359 3.86482 1.35172 2.68991 2.40824L3.69289 3.5236ZM13.5556 2V3.5H19.3333V2V0.5H13.5556V2ZM19.3333 2V3.5C20.1328 3.5 20.8718 3.78727 21.394 4.25723L22.3975 3.14229L23.4009 2.02734C22.2978 1.03451 20.8324 0.5 19.3333 0.5V2ZM22.3975 3.14229L21.394 4.25723C21.911 4.72248 22.1667 5.31754 22.1667 5.9H23.6667H25.1667C25.1667 4.41378 24.5093 3.02487 23.4009 2.02734L22.3975 3.14229Z" fill="currentColor" mask="url(#path-2-inside-1_677_1697)"/>
</svg>
