<svg width="30" height="30" viewBox="0 0 30 30" fill="none" xmlns="http://www.w3.org/2000/svg">
<path d="M9.54 2H20.46C24.62 2 28 5.38 28 9.54V20.46C28 22.4597 27.2056 24.3776 25.7916 25.7916C24.3776 27.2056 22.4597 28 20.46 28H9.54C5.38 28 2 24.62 2 20.46V9.54C2 7.54027 2.79439 5.62244 4.20842 4.20842C5.62244 2.79439 7.54027 2 9.54 2ZM9.28 4.6C8.03879 4.6 6.84841 5.09307 5.97074 5.97074C5.09307 6.84841 4.6 8.03879 4.6 9.28V20.72C4.6 23.307 6.693 25.4 9.28 25.4H20.72C21.9612 25.4 23.1516 24.9069 24.0293 24.0293C24.9069 23.1516 25.4 21.9612 25.4 20.72V9.28C25.4 6.693 23.307 4.6 20.72 4.6H9.28ZM21.825 6.55C22.256 6.55 22.6693 6.7212 22.974 7.02595C23.2788 7.3307 23.45 7.74402 23.45 8.175C23.45 8.60598 23.2788 9.0193 22.974 9.32405C22.6693 9.62879 22.256 9.8 21.825 9.8C21.394 9.8 20.9807 9.62879 20.6759 9.32405C20.3712 9.0193 20.2 8.60598 20.2 8.175C20.2 7.74402 20.3712 7.3307 20.6759 7.02595C20.9807 6.7212 21.394 6.55 21.825 6.55ZM15 8.5C16.7239 8.5 18.3772 9.18482 19.5962 10.4038C20.8152 11.6228 21.5 13.2761 21.5 15C21.5 16.7239 20.8152 18.3772 19.5962 19.5962C18.3772 20.8152 16.7239 21.5 15 21.5C13.2761 21.5 11.6228 20.8152 10.4038 19.5962C9.18482 18.3772 8.5 16.7239 8.5 15C8.5 13.2761 9.18482 11.6228 10.4038 10.4038C11.6228 9.18482 13.2761 8.5 15 8.5ZM15 11.1C13.9657 11.1 12.9737 11.5109 12.2423 12.2423C11.5109 12.9737 11.1 13.9657 11.1 15C11.1 16.0343 11.5109 17.0263 12.2423 17.7577C12.9737 18.4891 13.9657 18.9 15 18.9C16.0343 18.9 17.0263 18.4891 17.7577 17.7577C18.4891 17.0263 18.9 16.0343 18.9 15C18.9 13.9657 18.4891 12.9737 17.7577 12.2423C17.0263 11.5109 16.0343 11.1 15 11.1Z" fill="#A3B1C2"/>
</svg>
