<svg width="30" height="30" viewBox="0 0 30 30" fill="none" xmlns="http://www.w3.org/2000/svg">
<path d="M25.1111 2C25.8773 2 26.6121 2.30436 27.1539 2.84614C27.6956 3.38791 28 4.12271 28 4.88889V25.1111C28 25.8773 27.6956 26.6121 27.1539 27.1539C26.6121 27.6956 25.8773 28 25.1111 28H4.88889C4.12271 28 3.38791 27.6956 2.84614 27.1539C2.30436 26.6121 2 25.8773 2 25.1111V4.88889C2 4.12271 2.30436 3.38791 2.84614 2.84614C3.38791 2.30436 4.12271 2 4.88889 2H25.1111ZM24.3889 24.3889V16.7333C24.3889 15.4845 23.8928 14.2867 23.0097 13.4036C22.1266 12.5206 20.9289 12.0244 19.68 12.0244C18.4522 12.0244 17.0222 12.7756 16.3289 13.9022V12.2989H12.2989V24.3889H16.3289V17.2678C16.3289 16.1556 17.2244 15.2456 18.3367 15.2456C18.873 15.2456 19.3874 15.4586 19.7666 15.8379C20.1458 16.2171 20.3589 16.7315 20.3589 17.2678V24.3889H24.3889ZM7.60444 10.0311C8.24804 10.0311 8.86527 9.77545 9.32036 9.32036C9.77545 8.86527 10.0311 8.24804 10.0311 7.60444C10.0311 6.26111 8.94778 5.16333 7.60444 5.16333C6.95702 5.16333 6.33612 5.42052 5.87832 5.87832C5.42052 6.33612 5.16333 6.95702 5.16333 7.60444C5.16333 8.94778 6.26111 10.0311 7.60444 10.0311ZM9.61222 24.3889V12.2989H5.61111V24.3889H9.61222Z" fill="currentColor"/>
</svg>
