<svg width="30" height="30" viewBox="0 0 30 30" fill="none" xmlns="http://www.w3.org/2000/svg">
<path d="M24.2111 5.78306C23.0131 4.5794 21.5863 3.62502 20.0138 2.97554C18.4414 2.32606 16.7548 1.99446 15.0523 2.00007C7.91859 2.00007 2.10452 7.78505 2.10452 14.883C2.10452 17.158 2.70553 19.368 3.82915 21.318L2 28L8.8593 26.206C10.7538 27.233 12.8834 27.779 15.0523 27.779C22.1859 27.779 28 21.994 28 14.896C28 11.451 26.6543 8.21405 24.2111 5.78306ZM15.0523 25.595C13.1186 25.595 11.2241 25.075 9.56482 24.1L9.17286 23.866L5.09648 24.932L6.1809 20.98L5.9196 20.577C4.84504 18.8702 4.27458 16.8971 4.27337 14.883C4.27337 8.98105 9.10754 4.17106 15.0392 4.17106C17.9136 4.17106 20.6181 5.28906 22.6432 7.31706C23.6461 8.31008 24.4409 9.49136 24.9814 10.7924C25.5219 12.0934 25.7974 13.4883 25.792 14.896C25.8181 20.798 20.9839 25.595 15.0523 25.595ZM20.9578 17.587C20.6312 17.431 19.0372 16.651 18.7497 16.534C18.4492 16.43 18.2402 16.378 18.0181 16.69C17.796 17.015 17.1819 17.743 16.999 17.951C16.8161 18.172 16.6201 18.198 16.2935 18.029C15.9668 17.873 14.9216 17.522 13.6935 16.43C12.7266 15.572 12.0864 14.519 11.8905 14.194C11.7075 13.869 11.8643 13.7 12.0342 13.531C12.1779 13.388 12.3608 13.154 12.5176 12.972C12.6744 12.79 12.7397 12.647 12.8442 12.439C12.9487 12.218 12.8965 12.036 12.8181 11.88C12.7397 11.724 12.0864 10.138 11.8251 9.48805C11.5638 8.86405 11.2894 8.94205 11.0935 8.92905H10.4663C10.2442 8.92905 9.90452 9.00705 9.60402 9.33205C9.31658 9.65705 8.4804 10.437 8.4804 12.023C8.4804 13.609 9.64322 15.143 9.8 15.351C9.95678 15.572 12.0864 18.822 15.3266 20.213C16.0975 20.551 16.6985 20.746 17.1688 20.889C17.9397 21.136 18.6452 21.097 19.207 21.019C19.8342 20.928 21.1276 20.239 21.3889 19.485C21.6633 18.731 21.6633 18.094 21.5719 17.951C21.4804 17.808 21.2844 17.743 20.9578 17.587Z" fill="currentColor"/>
</svg>
